# xmcd CD database file
#
# Track frame offsets:
#	150
#	20191
#	39604
#	54277
#	78272
#	105762
#	124281
#	148116
#	168013
#	184647
#
# Disc length: 2738 seconds
#
# Revision: 1
# Processed by: cddbd v1.5.1PL0 Copyright (c) Steve Scherf et al.
# Submitted via: CDex 1.51
#
DISCID=790ab00a
DTITLE=Subtonic - In This House
DYEAR=2004
DGENRE=Jazz
TTITLE0=Nest Time
TTITLE1=In This House
TTITLE2=Underwater
TTITLE3=You Can Do
TTITLE4=Color
TTITLE5=What For
TTITLE6=When
TTITLE7=Hannas Fødelsesdag
TTITLE8=Pursuit
TTITLE9=Lullaby
EXTD=YEAR: 2004
EXTT0=
EXTT1=
EXTT2=
EXTT3=
EXTT4=
EXTT5=
EXTT6=
EXTT7=
EXTT8=
EXTT9=
PLAYORDER=
